<?xml version="1.0" encoding="utf-8"?>
<!-- Generator: Adobe Illustrator 16.0.0, SVG Export Plug-In . SVG Version: 6.00 Build 0)  -->
<!DOCTYPE svg PUBLIC "-//W3C//DTD SVG 1.1 Basic//EN" "http://www.w3.org/Graphics/SVG/1.1/DTD/svg11-basic.dtd">
<svg version="1.1" baseProfile="basic" xmlns="http://www.w3.org/2000/svg" xmlns:xlink="http://www.w3.org/1999/xlink" x="0px"
	 y="0px" width="96px" height="96px" viewBox="0 0 96 96" xml:space="preserve">
<g id="Ebene_1">
	<circle fill="#FFFFFF" cx="48" cy="48" r="44.022"/>
</g>
<g id="Ebene_4">
</g>
<g id="Ebene_3" display="none">
	<g id="Ebene_2_1_" display="inline">
		<g>
			<circle fill="none" stroke="#A2AED0" stroke-miterlimit="10" cx="47.285" cy="46.988" r="15.624"/>
			<circle fill="none" stroke="#A2AED0" stroke-miterlimit="10" cx="47.293" cy="46.933" r="21.259"/>
			<circle fill="none" stroke="#A2AED0" stroke-miterlimit="10" cx="47.321" cy="47.198" r="26.702"/>
			<path fill="none" stroke="#A2AED0" stroke-miterlimit="10" d="M79.65,47.041c0,17.829-14.452,32.283-32.281,32.283
				c-17.83,0-32.282-14.454-32.282-32.283c0-17.829,14.453-32.283,32.282-32.283C65.198,14.758,79.65,29.211,79.65,47.041z"/>
			<circle fill="none" stroke="#A2AED0" stroke-miterlimit="10" cx="47.425" cy="46.805" r="6.49"/>
			<line fill="none" stroke="#A2AED0" stroke-miterlimit="10" x1="47.421" y1="90.304" x2="47.421" y2="5.667"/>
			<line fill="none" stroke="#A2AED0" stroke-miterlimit="10" x1="6.368" y1="47.064" x2="91.004" y2="47.064"/>
		</g>
	</g>
</g>
<g id="Ebene_2">
	<circle fill="#6B81DE" stroke="#6B81DE" stroke-width="6" stroke-miterlimit="10" cx="48.074" cy="47.288" r="17.936"/>
	<line fill="none" stroke="#6B81DE" stroke-width="3" stroke-miterlimit="10" x1="47.769" y1="29.063" x2="47.769" y2="21.562"/>
	<line fill="none" stroke="#6B81DE" stroke-width="3" stroke-miterlimit="10" x1="47.769" y1="66.121" x2="47.769" y2="73.876"/>
	<line fill="none" stroke="#6B81DE" stroke-width="3" stroke-miterlimit="10" x1="66.299" y1="47.593" x2="72.395" y2="47.593"/>
	<line fill="none" stroke="#6B81DE" stroke-width="3" stroke-miterlimit="10" x1="29.239" y1="48.453" x2="22.524" y2="48.453"/>
	<line fill="none" stroke="#6B81DE" stroke-width="3" stroke-miterlimit="10" x1="60.952" y1="33.198" x2="67.896" y2="26.256"/>
	<line fill="none" stroke="#6B81DE" stroke-width="3" stroke-miterlimit="10" x1="34.943" y1="61.555" x2="28.391" y2="68.105"/>
	<line fill="none" stroke="#6B81DE" stroke-width="4" stroke-miterlimit="10" x1="61.345" y1="60.771" x2="69.013" y2="68.439"/>
	<line fill="none" stroke="#6B81DE" stroke-width="3" stroke-miterlimit="10" x1="34.943" y1="34.22" x2="27.195" y2="26.473"/>
	<circle fill="#6B81DE" cx="47.768" cy="75.084" r="4.106"/>
	<circle fill="#6B81DE" cx="47.768" cy="19.68" r="4.106"/>
	<circle fill="#6B81DE" cx="75.792" cy="47.593" r="4.107"/>
	<circle fill="#6B81DE" cx="19.997" cy="48.453" r="4.107"/>
	<circle fill="#6B81DE" cx="69.012" cy="25.312" r="4.106"/>
	<circle fill="#6B81DE" cx="69.346" cy="69.354" r="4.105"/>
	<circle fill="#6B81DE" cx="25.88" cy="25.311" r="4.106"/>
	<circle fill="#6B81DE" cx="27.195" cy="69.352" r="4.106"/>
	
		<rect x="9.552" y="44.294" transform="matrix(0.8158 -0.5784 0.5784 0.8158 -18.9301 36.3946)" fill="#FFFFFF" width="76.226" height="7.238"/>
</g>
</svg>
