<svg width="227" height="227" xmlns="http://www.w3.org/2000/svg" xmlns:xlink="http://www.w3.org/1999/xlink" overflow="hidden"><defs><clipPath id="clip0"><rect x="114" y="270" width="227" height="227"/></clipPath></defs><g clip-path="url(#clip0)" transform="translate(-114 -270)"><path d="M331.594 383.5C331.594 440.989 284.989 487.594 227.5 487.594 170.011 487.594 123.406 440.989 123.406 383.5 123.406 326.011 170.011 279.406 227.5 279.406 284.989 279.406 331.594 326.011 331.594 383.5Z" fill="#6B81DE"/><path d="M270.086 381.816C270.086 405.239 251.098 424.228 227.675 424.228 204.252 424.228 185.264 405.239 185.264 381.816 185.264 358.393 204.252 339.405 227.675 339.405 251.098 339.405 270.086 358.393 270.086 381.816Z" stroke="#FFFFFF" stroke-width="14.1875" stroke-miterlimit="10" fill="#FFFFFF"/><path d="M226.954 338.722 226.954 320.985" stroke="#FFFFFF" stroke-width="7.09375" stroke-miterlimit="10" fill="none"/><path d="M226.954 426.349 226.954 444.686" stroke="#FFFFFF" stroke-width="7.09375" stroke-miterlimit="10" fill="none"/><path d="M270.77 382.538 285.184 382.538" stroke="#FFFFFF" stroke-width="7.09375" stroke-miterlimit="10" fill="none"/><path d="M183.138 384.571 167.26 384.571" stroke="#FFFFFF" stroke-width="7.09375" stroke-miterlimit="10" fill="none"/><path d="M258.126 348.499 274.546 332.085" stroke="#FFFFFF" stroke-width="7.09375" stroke-miterlimit="10" fill="none"/><path d="M196.626 415.552 181.133 431.04" stroke="#FFFFFF" stroke-width="7.09375" stroke-miterlimit="10" fill="none"/><path d="M259.055 413.698 277.187 431.83" stroke="#FFFFFF" stroke-width="9.45833" stroke-miterlimit="10" fill="none"/><path d="M196.626 350.916 178.305 332.598" stroke="#FFFFFF" stroke-width="7.09375" stroke-miterlimit="10" fill="none"/><path d="M236.66 447.542C236.66 452.904 232.314 457.251 226.951 457.251 221.589 457.251 217.242 452.904 217.242 447.542 217.242 442.18 221.589 437.833 226.951 437.833 232.314 437.833 236.66 442.18 236.66 447.542Z" fill="#FFFFFF"/><path d="M236.66 316.535C236.66 321.897 232.314 326.244 226.951 326.244 221.589 326.244 217.242 321.897 217.242 316.535 217.242 311.173 221.589 306.826 226.951 306.826 232.314 306.826 236.66 311.173 236.66 316.535Z" fill="#FFFFFF"/><path d="M302.928 382.538C302.928 387.901 298.58 392.249 293.216 392.249 287.853 392.249 283.505 387.901 283.505 382.538 283.505 377.174 287.853 372.826 293.216 372.826 298.58 372.826 302.928 377.174 302.928 382.538Z" fill="#FFFFFF"/><path d="M170.996 384.571C170.996 389.935 166.648 394.283 161.285 394.283 155.921 394.283 151.573 389.935 151.573 384.571 151.573 379.208 155.921 374.86 161.285 374.86 166.648 374.86 170.996 379.208 170.996 384.571Z" fill="#FFFFFF"/><path d="M286.894 329.852C286.894 335.214 282.547 339.561 277.185 339.561 271.822 339.561 267.476 335.214 267.476 329.852 267.476 324.49 271.822 320.143 277.185 320.143 282.547 320.143 286.894 324.49 286.894 329.852Z" fill="#FFFFFF"/><path d="M287.681 433.993C287.681 439.354 283.335 443.7 277.974 443.7 272.614 443.7 268.268 439.354 268.268 433.993 268.268 428.633 272.614 424.287 277.974 424.287 283.335 424.287 287.681 428.632 287.681 433.993Z" fill="#FFFFFF"/><path d="M184.904 329.85C184.904 335.212 180.558 339.559 175.195 339.559 169.833 339.559 165.486 335.212 165.486 329.85 165.486 324.488 169.833 320.141 175.195 320.141 180.558 320.141 184.904 324.488 184.904 329.85Z" fill="#FFFFFF"/><path d="M188.014 433.989C188.014 439.351 183.667 443.698 178.305 443.698 172.943 443.698 168.596 439.351 168.596 433.989 168.596 428.626 172.943 424.28 178.305 424.28 183.667 424.28 188.014 428.626 188.014 433.989Z" fill="#FFFFFF"/><path d="M148.244 428.438 295.286 324.186 305.185 338.148 158.143 442.401Z" fill="#6B81DE"/></g></svg>